<svg xmlns="http://www.w3.org/2000/svg" width="160.094" height="29.718" viewBox="0 0 160.094 29.718">
  <metadata><?xpacket begin="﻿" id="W5M0MpCehiHzreSzNTczkc9d"?>
<x:xmpmeta xmlns:x="adobe:ns:meta/" x:xmptk="Adobe XMP Core 5.6-c138 79.159824, 2016/09/14-01:09:01        ">
   <rdf:RDF xmlns:rdf="http://www.w3.org/1999/02/22-rdf-syntax-ns#">
      <rdf:Description rdf:about=""/>
   </rdf:RDF>
</x:xmpmeta>
                                                                                                    
                                                                                                    
                                                                                                    
                                                                                                    
                                                                                                    
                                                                                                    
                                                                                                    
                                                                                                    
                                                                                                    
                                                                                                    
                                                                                                    
                                                                                                    
                                                                                                    
                                                                                                    
                                                                                                    
                                                                                                    
                                                                                                    
                                                                                                    
                                                                                                    
                                                                                                    
                           
<?xpacket end="w"?></metadata>
<defs>
    <style>
      .cls-1 {
        fill: #414143;
        fill-rule: evenodd;
      }
    </style>
  </defs>
  <path id="basic" class="cls-1" d="M77.461,772.165a11.766,11.766,0,0,0,3.115-.367,5.766,5.766,0,0,0,2.2-1.1L87.3,766.88a4.786,4.786,0,0,0,1.365-1.907,7.3,7.3,0,0,0,.455-2.713v-3.22a6.726,6.726,0,0,0-.945-3.833,4.437,4.437,0,0,0-2.835-1.8l0.105-.07a3.176,3.176,0,0,0,1-1.4,5.921,5.921,0,0,0,.333-2.1v-1.68a5.242,5.242,0,0,0-1.715-4.287Q83.34,742.45,79.7,742.45H68.536a2.3,2.3,0,0,0-.648.088,1.369,1.369,0,0,0-.472.227L62.9,746.58a1.3,1.3,0,0,0-.367.525,2.126,2.126,0,0,0-.123.77v22.68a1.388,1.388,0,0,0,1.61,1.61h13.44ZM68.536,768a1.08,1.08,0,0,1-1.26-1.26V744.06a1.079,1.079,0,0,1,1.26-1.26H79.7a8.08,8.08,0,0,1,5.075,1.312,4.861,4.861,0,0,1,1.645,4.043v1.68a4.977,4.977,0,0,1-.507,2.4,3.127,3.127,0,0,1-1.558,1.382,4.636,4.636,0,0,1,3.325,1.54,6.026,6.026,0,0,1,1.085,3.885v3.22A5.36,5.36,0,0,1,87.1,766.6a7.842,7.842,0,0,1-5.127,1.4H68.536Zm14.42-3.412a3.28,3.28,0,0,0,1.383-.718,2.349,2.349,0,0,0,.647-1.1,5.418,5.418,0,0,0,.175-1.417v-2.24A7.692,7.692,0,0,0,85,757.5a2.731,2.731,0,0,0-.648-1.278,3.18,3.18,0,0,0-1.4-.84,7.746,7.746,0,0,0-2.345-.3,2.524,2.524,0,0,0,1.873-1.26,4.921,4.921,0,0,0,.368-1.925v-2.24a5.637,5.637,0,0,0-.175-1.435,2.639,2.639,0,0,0-.665-1.173,3.384,3.384,0,0,0-1.4-.805,7.746,7.746,0,0,0-2.345-.3h-7.1v18.9h9.415A8.832,8.832,0,0,0,82.956,764.588ZM81.7,747.28a3.63,3.63,0,0,1,.8,2.38v2.24a5.829,5.829,0,0,1-.122,1.208,2,2,0,0,1-.56,1.014,3.065,3.065,0,0,1-1.278.7,7.9,7.9,0,0,1-2.275.262H71.511V746.3h6.755Q80.891,746.3,81.7,747.28Zm-6.545,5.25h2.975a1.312,1.312,0,0,0,1-.35,1.473,1.473,0,0,0,.332-1.05v-0.98a1.476,1.476,0,0,0-.332-1.05,1.316,1.316,0,0,0-1-.35H75.151v3.78Zm8.873,3.955a4.252,4.252,0,0,1,.787,2.625v2.24a3.212,3.212,0,0,1-.8,2.292q-0.806.86-3.43,0.858H71.511v-9.065h9.1Q83.236,755.435,84.023,756.485Zm-8.873,5.565H79.7a1.312,1.312,0,0,0,1-.35,1.473,1.473,0,0,0,.332-1.05v-1.365a1.413,1.413,0,0,0-.332-1.033,1.358,1.358,0,0,0-1-.332h-4.55v4.13Zm31.692-6.4a10.819,10.819,0,0,1,.4-1.5l2.24-5.74a7.644,7.644,0,0,1,.77-1.487,1.656,1.656,0,0,1,1.47-.613h3.43a1.576,1.576,0,0,1,1.4.613,8.729,8.729,0,0,1,.805,1.522l2.415,5.705a10.961,10.961,0,0,1,.4,1.5,9.122,9.122,0,0,1,.158,1.75v1.085h-13.65V757.4A9.125,9.125,0,0,1,106.843,755.645Zm3.8-.175h5.495l-1.645-5.32a1.348,1.348,0,0,0-.3-0.455,0.536,0.536,0,0,0-.367-0.14h-0.875a0.539,0.539,0,0,0-.368.14,1.333,1.333,0,0,0-.3.455Zm10.045,9.38V757.4a9.612,9.612,0,0,0-.158-1.8,10.477,10.477,0,0,0-.437-1.592l-2.415-5.705a8.61,8.61,0,0,0-.893-1.68,1.86,1.86,0,0,0-1.627-.665h-3.43a1.951,1.951,0,0,0-1.68.665,7.2,7.2,0,0,0-.875,1.645l-2.24,5.74a10.365,10.365,0,0,0-.438,1.592,9.616,9.616,0,0,0-.157,1.8v7.455h0.35v-6.02h13.65v6.02h0.35ZM109.993,767.7a1.316,1.316,0,0,1-.962.3h-5.145a1.079,1.079,0,0,1-1.26-1.26V757.5a10.333,10.333,0,0,1,.332-2.415,26.683,26.683,0,0,1,1.033-3.185l3.045-7.945a1.643,1.643,0,0,1,.647-0.875,2.087,2.087,0,0,1,1.138-.28h9.415a2.014,2.014,0,0,1,1.1.28,1.645,1.645,0,0,1,.648.875l3.045,7.945a26.841,26.841,0,0,1,1.032,3.185,10.34,10.34,0,0,1,.333,2.415v9.24a1.08,1.08,0,0,1-1.26,1.26h-5.285a1.514,1.514,0,0,1-1.033-.3,1.228,1.228,0,0,1-.332-0.962v-4.9h-6.2v4.9A1.318,1.318,0,0,1,109.993,767.7Zm0.158,0.333a1.3,1.3,0,0,0,.367-0.525,2.121,2.121,0,0,0,.123-0.77v-0.735h0.98v4.55a1.6,1.6,0,0,0,.42,1.208,1.818,1.818,0,0,0,1.3.4h5.285a1.93,1.93,0,0,0,.647-0.105,1.182,1.182,0,0,0,.438-0.245l4.55-3.78a1.3,1.3,0,0,0,.367-0.525,2.121,2.121,0,0,0,.123-0.77V757.5a10.668,10.668,0,0,0-.333-2.467,26.153,26.153,0,0,0-1.067-3.273l-3.045-7.945a1.967,1.967,0,0,0-.753-1.033,2.359,2.359,0,0,0-1.312-.332h-9.415a2.867,2.867,0,0,0-.875.123,1.846,1.846,0,0,0-.665.367l-4.48,3.745-0.035.035a2.94,2.94,0,0,0-.333.4,2.159,2.159,0,0,0-.262.543l-3.01,7.91a26.127,26.127,0,0,0-1.067,3.272,10.68,10.68,0,0,0-.333,2.468v9.24a1.388,1.388,0,0,0,1.61,1.61h5.145a1.93,1.93,0,0,0,.647-0.105,1.182,1.182,0,0,0,.438-0.245Zm36.224,4.13a10.528,10.528,0,0,0,3.15-.438,7,7,0,0,0,2.38-1.242l4.515-3.78a5.4,5.4,0,0,0,1.54-2.065,7.047,7.047,0,0,0,.525-2.8v-3.675a5.7,5.7,0,0,0-1.347-4.182,7.062,7.062,0,0,0-3.553-1.838l3.15-2.625A1.306,1.306,0,0,0,157.1,749a2.144,2.144,0,0,0,.122-0.77V744.06a1.388,1.388,0,0,0-1.61-1.61h-9.8a10.659,10.659,0,0,0-3.185.438,6.965,6.965,0,0,0-2.345,1.207l-4.55,3.815a5.575,5.575,0,0,0-1.505,2.065,7.051,7.051,0,0,0-.525,2.8v3.675a6.105,6.105,0,0,0,1.068,3.868,5.712,5.712,0,0,0,2.922,1.907l-3.5,2.94a1.294,1.294,0,0,0-.367.525,2.125,2.125,0,0,0-.123.77v4.095a1.388,1.388,0,0,0,1.61,1.61h11.06ZM139.83,768a1.08,1.08,0,0,1-1.26-1.26v-4.1a1.079,1.079,0,0,1,1.26-1.26h9.415a0.808,0.808,0,0,0,.683-0.3,1.151,1.151,0,0,0,.227-0.718,1.384,1.384,0,0,0-.227-0.875,0.932,0.932,0,0,0-.683-0.315l-5.25-.735a7.614,7.614,0,0,1-3.937-1.61q-1.488-1.26-1.488-4.2V748.96a5.6,5.6,0,0,1,1.925-4.568,8.111,8.111,0,0,1,5.32-1.592h9.8a1.078,1.078,0,0,1,1.26,1.26v4.165a1.078,1.078,0,0,1-1.26,1.26H147.46a0.859,0.859,0,0,0-.7.3,1.15,1.15,0,0,0-.245.753,1.217,1.217,0,0,0,.245.77,0.93,0.93,0,0,0,.7.35l5.215,0.7a7.73,7.73,0,0,1,3.955,1.61q1.5,1.26,1.5,4.2v3.675a5.568,5.568,0,0,1-1.942,4.568,8.121,8.121,0,0,1-5.3,1.592H139.83Zm6.125-22.05a3.693,3.693,0,0,0-2.59.893,2.961,2.961,0,0,0-.98,2.292v2.87a2.67,2.67,0,0,0,.578,1.978,2.911,2.911,0,0,0,1.487.717l7.385,1.5a2.919,2.919,0,0,1,1.558.823,3.325,3.325,0,0,1,.577,2.257v2.03a2.99,2.99,0,0,1-.962,2.293,3.64,3.64,0,0,1-2.573.892H141.72v0.35h8.715a3.947,3.947,0,0,0,2.835-1,3.345,3.345,0,0,0,1.05-2.537v-2.03a3.6,3.6,0,0,0-.682-2.52,3.246,3.246,0,0,0-1.733-.91l-7.385-1.5a2.339,2.339,0,0,1-1.3-.63,2.388,2.388,0,0,1-.49-1.715v-2.87a2.643,2.643,0,0,1,.875-2.03,3.331,3.331,0,0,1,2.345-.805h7.77v-0.35h-7.77Zm38.238,26.11a1.168,1.168,0,0,0,.437-0.245l4.55-3.78a1.306,1.306,0,0,0,.368-0.525,2.144,2.144,0,0,0,.122-0.77v-4.165a1.388,1.388,0,0,0-1.61-1.61h-3.045V753.09l4.165-3.5a1.306,1.306,0,0,0,.368-0.525,2.144,2.144,0,0,0,.122-0.77V744.06a1.388,1.388,0,0,0-1.61-1.61H173.15a2.3,2.3,0,0,0-.647.088,1.372,1.372,0,0,0-.473.227l-4.515,3.815a1.294,1.294,0,0,0-.367.525,2.125,2.125,0,0,0-.123.77v4.235a1.388,1.388,0,0,0,1.61,1.61h3.115v7.8l-4.235,3.57a1.294,1.294,0,0,0-.367.525,2.125,2.125,0,0,0-.123.77v4.165a1.388,1.388,0,0,0,1.61,1.61h14.91A1.94,1.94,0,0,0,184.193,772.06ZM172.188,767.7a1.313,1.313,0,0,1-.3-0.962v-4.165a1.08,1.08,0,0,1,1.26-1.26h3.465v-11.76H173.15a1.08,1.08,0,0,1-1.26-1.26V744.06a1.079,1.079,0,0,1,1.26-1.26h14.91a1.078,1.078,0,0,1,1.26,1.26V748.3a1.079,1.079,0,0,1-1.26,1.26h-3.4v11.76h3.4a1.079,1.079,0,0,1,1.26,1.26v4.165a1.079,1.079,0,0,1-1.26,1.26H173.15A1.316,1.316,0,0,1,172.188,767.7Zm13.982-3.2h-5.355V746.3h5.355v-0.35H175.04v0.35h5.425v18.2H175.04v0.35h11.13V764.5Zm30.852,7.56a1.182,1.182,0,0,0,.438-0.245l4.55-3.78a1.3,1.3,0,0,0,.367-0.525,2.121,2.121,0,0,0,.123-0.77v-4.165a1.388,1.388,0,0,0-1.61-1.61h-7.035a2.442,2.442,0,0,1-1.33-.3,1.138,1.138,0,0,1-.455-1.033V753.72h4.305a1.93,1.93,0,0,0,.647-0.105,1.168,1.168,0,0,0,.438-0.245l4.55-3.78a1.3,1.3,0,0,0,.367-0.525,2.121,2.121,0,0,0,.123-0.77V744.06a1.388,1.388,0,0,0-1.61-1.61h-8.54a15.247,15.247,0,0,0-3.955.455,7.161,7.161,0,0,0-2.765,1.365l-4.55,3.815a5.99,5.99,0,0,0-1.645,2.363,9.056,9.056,0,0,0-.56,3.342v9.835a8.747,8.747,0,0,0,2.187,6.16q2.187,2.379,6.773,2.38h8.54A1.93,1.93,0,0,0,217.022,772.06ZM212.35,768q-4.376,0-6.493-1.75t-2.117-5.39V749.975a6.646,6.646,0,0,1,2.117-5.408q2.118-1.765,6.493-1.767h8.54a1.079,1.079,0,0,1,1.26,1.26V748.3a1.08,1.08,0,0,1-1.26,1.26h-7.035a2.476,2.476,0,0,0-1.61.438,1.611,1.611,0,0,0-.525,1.312v8.33a1.5,1.5,0,0,0,.525,1.277,2.631,2.631,0,0,0,1.61.4h7.035a1.08,1.08,0,0,1,1.26,1.26v4.165a1.08,1.08,0,0,1-1.26,1.26h-8.54Zm0.77-3.5q-3.15,0-4.2-.945a4.17,4.17,0,0,1-1.05-3.22v-9.8a4.2,4.2,0,0,1,1.085-3.272q1.084-.963,4.165-0.963h5.845v-0.35H213.12q-3.36,0-4.48,1.05a4.686,4.686,0,0,0-1.12,3.535v9.8a4.624,4.624,0,0,0,1.1,3.465q1.1,1.05,4.5,1.05h5.845V764.5H213.12Z" transform="translate(-62.406 -742.438)"/>
</svg>
