<svg xmlns="http://www.w3.org/2000/svg" width="160.094" height="29.718">
  <defs>
    <style>
      .cls-1 { fill: #414143; fill-rule: evenodd; }
    </style>
  </defs>
  <path id="basic" d="M15.055 29.727a11.766 11.766 0 0 0 3.115-.367 5.766 5.766 0 0 0 2.2-1.1l4.524-3.818a4.786 4.786 0 0 0 1.365-1.907 7.3 7.3 0 0 0 .45-2.713v-3.22a6.726 6.726 0 0 0-.95-3.833 4.437 4.437 0 0 0-2.84-1.8l.1-.07a3.176 3.176 0 0 0 1-1.4 5.92 5.92 0 0 0 .33-2.1V5.72a5.242 5.242 0 0 0-1.72-4.288q-1.7-1.42-5.34-1.42H6.13A2.3 2.3 0 0 0 5.482.1a1.37 1.37 0 0 0-.472.227L.494 4.142a1.3 1.3 0 0 0-.367.525 2.126 2.126 0 0 0-.123.77v22.68a1.388 1.388 0 0 0 1.61 1.61h13.44zM6.13 25.562a1.08 1.08 0 0 1-1.26-1.26V1.622A1.08 1.08 0 0 1 6.13.362h11.164a8.08 8.08 0 0 1 5.075 1.312 4.86 4.86 0 0 1 1.64 4.043v1.68a4.977 4.977 0 0 1-.51 2.4 3.127 3.127 0 0 1-1.56 1.382 4.636 4.636 0 0 1 3.32 1.54 6.026 6.026 0 0 1 1.08 3.88v3.22a5.36 5.36 0 0 1-1.67 4.34 7.842 7.842 0 0 1-5.13 1.4H6.13zm14.42-3.412a3.28 3.28 0 0 0 1.383-.718 2.35 2.35 0 0 0 .647-1.1 5.418 5.418 0 0 0 .175-1.417v-2.24a7.692 7.692 0 0 0-.16-1.613 2.73 2.73 0 0 0-.65-1.278 3.18 3.18 0 0 0-1.4-.84 7.746 7.746 0 0 0-2.344-.3 2.524 2.524 0 0 0 1.88-1.26 4.92 4.92 0 0 0 .37-1.925V7.22a5.637 5.637 0 0 0-.17-1.436 2.64 2.64 0 0 0-.66-1.173 3.384 3.384 0 0 0-1.4-.8 7.746 7.746 0 0 0-2.34-.3h-7.1v18.9h9.42a8.832 8.832 0 0 0 2.38-.25zM19.294 4.842a3.63 3.63 0 0 1 .8 2.38v2.24a5.83 5.83 0 0 1-.122 1.208 2 2 0 0 1-.56 1.014 3.065 3.065 0 0 1-1.278.7 7.9 7.9 0 0 1-2.275.262H9.1V3.862h6.755q2.624 0 3.433.98zm-6.545 5.25h2.97a1.312 1.312 0 0 0 1-.35 1.473 1.473 0 0 0 .33-1.05v-.98a1.476 1.476 0 0 0-.33-1.05 1.316 1.316 0 0 0-1-.35h-2.98v3.78zm8.87 3.955a4.252 4.252 0 0 1 .78 2.625v2.24a3.212 3.212 0 0 1-.8 2.292q-.81.86-3.43.858H9.1v-9.065h9.1q2.625 0 3.41 1.05zm-8.88 5.565h4.54a1.312 1.312 0 0 0 1-.35 1.473 1.473 0 0 0 .33-1.05v-1.365a1.413 1.413 0 0 0-.34-1.033 1.358 1.358 0 0 0-1-.332h-4.55v4.13zm31.69-6.4a10.82 10.82 0 0 1 .4-1.5l2.24-5.74a7.644 7.644 0 0 1 .77-1.487 1.656 1.656 0 0 1 1.47-.613h3.43a1.576 1.576 0 0 1 1.4.613 8.73 8.73 0 0 1 .8 1.522l2.41 5.705a10.96 10.96 0 0 1 .4 1.5 9.122 9.122 0 0 1 .16 1.75v1.085H44.28v-1.085a9.125 9.125 0 0 1 .157-1.755zm3.8-.175h5.49l-1.65-5.32a1.348 1.348 0 0 0-.3-.455.536.536 0 0 0-.37-.14h-.88a.54.54 0 0 0-.37.14 1.333 1.333 0 0 0-.3.455zm10.04 9.38v-7.455a9.612 9.612 0 0 0-.16-1.8 10.477 10.477 0 0 0-.44-1.592l-2.41-5.705a8.61 8.61 0 0 0-.9-1.68 1.86 1.86 0 0 0-1.63-.665H49.3a1.95 1.95 0 0 0-1.68.665 7.2 7.2 0 0 0-.876 1.645l-2.24 5.74a10.365 10.365 0 0 0-.437 1.592 9.616 9.616 0 0 0-.156 1.8v7.455h.35v-6.02h13.65v6.02h.35zm-10.7 2.845a1.316 1.316 0 0 1-.96.3h-5.14a1.08 1.08 0 0 1-1.26-1.26v-9.24a10.333 10.333 0 0 1 .33-2.415 26.683 26.683 0 0 1 1.03-3.185l3.04-7.945a1.643 1.643 0 0 1 .64-.875 2.087 2.087 0 0 1 1.14-.28h9.41a2.014 2.014 0 0 1 1.1.28 1.645 1.645 0 0 1 .65.875l3.05 7.945a26.84 26.84 0 0 1 1.03 3.185 10.34 10.34 0 0 1 .33 2.415v9.24a1.08 1.08 0 0 1-1.26 1.26h-5.28a1.514 1.514 0 0 1-1.034-.3 1.228 1.228 0 0 1-.33-.962v-4.9h-6.2v4.9a1.318 1.318 0 0 1-.29.962zm.16.333a1.3 1.3 0 0 0 .36-.525 2.12 2.12 0 0 0 .12-.77v-.735h.98v4.55a1.6 1.6 0 0 0 .42 1.208 1.818 1.818 0 0 0 1.3.4h5.29a1.93 1.93 0 0 0 .64-.105 1.182 1.182 0 0 0 .44-.245l4.55-3.78a1.3 1.3 0 0 0 .36-.525 2.12 2.12 0 0 0 .12-.77v-9.236a10.668 10.668 0 0 0-.33-2.467 26.153 26.153 0 0 0-1.07-3.273L57.9 1.377a1.967 1.967 0 0 0-.753-1.033 2.36 2.36 0 0 0-1.312-.332H46.42a2.867 2.867 0 0 0-.875.123 1.846 1.846 0 0 0-.665.367L40.4 4.247l-.035.035a2.94 2.94 0 0 0-.333.4 2.16 2.16 0 0 0-.262.543l-3.01 7.91a26.127 26.127 0 0 0-1.067 3.272 10.68 10.68 0 0 0-.333 2.468v9.24a1.388 1.388 0 0 0 1.61 1.61h5.145a1.93 1.93 0 0 0 .647-.105 1.182 1.182 0 0 0 .438-.245zm36.22 4.13a10.528 10.528 0 0 0 3.15-.438 7 7 0 0 0 2.38-1.242l4.52-3.78a5.4 5.4 0 0 0 1.54-2.065 7.047 7.047 0 0 0 .52-2.8v-3.675a5.7 5.7 0 0 0-1.35-4.182 7.062 7.062 0 0 0-3.55-1.838l3.15-2.625a1.306 1.306 0 0 0 .36-.518 2.144 2.144 0 0 0 .12-.77v-4.17a1.388 1.388 0 0 0-1.6-1.61h-9.8a10.66 10.66 0 0 0-3.18.438 6.965 6.965 0 0 0-2.35 1.207l-4.55 3.815a5.575 5.575 0 0 0-1.51 2.065 7.05 7.05 0 0 0-.52 2.8v3.675a6.105 6.105 0 0 0 1.07 3.868 5.712 5.712 0 0 0 2.92 1.907l-3.5 2.94a1.294 1.294 0 0 0-.367.525 2.125 2.125 0 0 0-.123.77v4.095a1.388 1.388 0 0 0 1.61 1.61h11.06zm-6.55-4.163a1.08 1.08 0 0 1-1.26-1.26v-4.1a1.08 1.08 0 0 1 1.26-1.26h9.41a.808.808 0 0 0 .68-.3 1.15 1.15 0 0 0 .23-.718 1.384 1.384 0 0 0-.23-.875.932.932 0 0 0-.68-.32L81.59 16a7.614 7.614 0 0 1-3.938-1.61q-1.488-1.26-1.488-4.2V6.52a5.6 5.6 0 0 1 1.925-4.568 8.11 8.11 0 0 1 5.32-1.59h9.8a1.078 1.078 0 0 1 1.26 1.26v4.165a1.078 1.078 0 0 1-1.26 1.26h-8.16a.86.86 0 0 0-.7.3 1.15 1.15 0 0 0-.25.753 1.217 1.217 0 0 0 .24.77.93.93 0 0 0 .7.35l5.21.7a7.73 7.73 0 0 1 3.95 1.61q1.5 1.26 1.5 4.2v3.675a5.568 5.568 0 0 1-1.94 4.568 8.12 8.12 0 0 1-5.3 1.592H77.42zm6.12-22.05a3.693 3.693 0 0 0-2.59.893 2.96 2.96 0 0 0-.98 2.292v2.87a2.67 2.67 0 0 0 .57 1.978 2.91 2.91 0 0 0 1.48.717l7.382 1.5a2.92 2.92 0 0 1 1.56.823 3.325 3.325 0 0 1 .58 2.257v2.03a2.99 2.99 0 0 1-.97 2.293 3.64 3.64 0 0 1-2.573.892h-8.7v.35H88a3.947 3.947 0 0 0 2.83-1 3.345 3.345 0 0 0 1.05-2.537v-2.03a3.6 3.6 0 0 0-.68-2.52 3.246 3.246 0 0 0-1.733-.91l-7.386-1.5a2.34 2.34 0 0 1-1.3-.63 2.388 2.388 0 0 1-.49-1.715v-2.87a2.643 2.643 0 0 1 .88-2.03 3.33 3.33 0 0 1 2.347-.805h7.77v-.35h-7.77zm38.23 26.11a1.168 1.168 0 0 0 .43-.245l4.55-3.78a1.306 1.306 0 0 0 .365-.525 2.144 2.144 0 0 0 .12-.77v-4.165a1.388 1.388 0 0 0-1.61-1.61h-3.04v-7.875l4.162-3.5a1.306 1.306 0 0 0 .364-.525 2.144 2.144 0 0 0 .12-.77V1.622a1.388 1.388 0 0 0-1.61-1.61h-14.9a2.3 2.3 0 0 0-.648.088 1.372 1.372 0 0 0-.473.227l-4.51 3.815a1.294 1.294 0 0 0-.36.525 2.125 2.125 0 0 0-.13.77v4.235a1.388 1.388 0 0 0 1.61 1.61h3.114v7.8l-4.234 3.57a1.294 1.294 0 0 0-.37.525 2.125 2.125 0 0 0-.125.77v4.165a1.388 1.388 0 0 0 1.61 1.61h14.91a1.94 1.94 0 0 0 .65-.1zm-12.01-4.36a1.313 1.313 0 0 1-.3-.962v-4.165a1.08 1.08 0 0 1 1.26-1.26h3.47V7.115h-3.467a1.08 1.08 0 0 1-1.26-1.26V1.622a1.08 1.08 0 0 1 1.26-1.26h14.91a1.078 1.078 0 0 1 1.26 1.26v4.24a1.08 1.08 0 0 1-1.26 1.26h-3.4v11.76h3.4a1.08 1.08 0 0 1 1.26 1.26v4.165a1.08 1.08 0 0 1-1.26 1.26h-14.91a1.316 1.316 0 0 1-.966-.305zm13.984-3.2h-5.35v-18.2h5.356v-.35H112.6v.35h5.42v18.2h-5.42v.35h11.13v-.35zm30.85 7.56a1.182 1.182 0 0 0 .44-.245l4.55-3.78a1.3 1.3 0 0 0 .37-.525 2.12 2.12 0 0 0 .122-.77v-4.165a1.388 1.388 0 0 0-1.61-1.61h-7.034a2.442 2.442 0 0 1-1.33-.3 1.138 1.138 0 0 1-.455-1.033v-5.912h4.31a1.93 1.93 0 0 0 .65-.105 1.168 1.168 0 0 0 .44-.245l4.55-3.78a1.3 1.3 0 0 0 .37-.525 2.12 2.12 0 0 0 .12-.77V1.622a1.388 1.388 0 0 0-1.61-1.61h-8.54a15.247 15.247 0 0 0-3.953.455 7.16 7.16 0 0 0-2.77 1.365l-4.55 3.815A5.99 5.99 0 0 0 137 8.01a9.056 9.056 0 0 0-.56 3.342v9.835a8.747 8.747 0 0 0 2.187 6.16q2.19 2.38 6.78 2.38h8.54a1.93 1.93 0 0 0 .644-.105zm-4.67-4.06q-4.375 0-6.49-1.75t-2.118-5.39V7.537a6.646 6.646 0 0 1 2.12-5.408q2.12-1.77 6.493-1.77h8.54a1.08 1.08 0 0 1 1.26 1.26v4.24a1.08 1.08 0 0 1-1.26 1.26h-7.035a2.476 2.476 0 0 0-1.61.43 1.61 1.61 0 0 0-.525 1.31v8.33a1.5 1.5 0 0 0 .53 1.27 2.63 2.63 0 0 0 1.61.4h7.035a1.08 1.08 0 0 1 1.26 1.26v4.17a1.08 1.08 0 0 1-1.26 1.26h-8.54zm.77-3.5q-3.15 0-4.2-.945a4.17 4.17 0 0 1-1.05-3.22v-9.8a4.2 4.2 0 0 1 1.086-3.272q1.084-.963 4.165-.963h5.85v-.35h-5.84q-3.36 0-4.48 1.05a4.686 4.686 0 0 0-1.12 3.535v9.8a4.624 4.624 0 0 0 1.1 3.465q1.1 1.05 4.5 1.05h5.844v-.35h-5.84z" class="cls-1"/>
</svg>
